<svg xmlns="http://www.w3.org/2000/svg" width="1450" height="2175" viewBox="0 0 1450 2175" role="img" aria-labelledby="title"><title id="title">实体 · 组件归属与关系</title><defs><marker id="arrow-order" viewBox="0 0 10 10" refX="9" refY="5" markerWidth="7" markerHeight="7" orient="auto-start-reverse"><path d="M0,0 L10,5 L0,10" fill="#324153"/></marker><marker id="arrow-read" viewBox="0 0 10 10" refX="9" refY="5" markerWidth="7" markerHeight="7" orient="auto-start-reverse"><path d="M0,0 L10,5 L0,10" fill="#2d72ad"/></marker><marker id="arrow-write" viewBox="0 0 10 10" refX="9" refY="5" markerWidth="7" markerHeight="7" orient="auto-start-reverse"><path d="M0,0 L10,5 L0,10" fill="#288554"/></marker><marker id="arrow-trigger" viewBox="0 0 10 10" refX="9" refY="5" markerWidth="7" markerHeight="7" orient="auto-start-reverse"><path d="M0,0 L10,5 L0,10" fill="#bf651e"/></marker><marker id="arrow-reference" viewBox="0 0 10 10" refX="9" refY="5" markerWidth="7" markerHeight="7" orient="auto-start-reverse"><path d="M0,0 L10,5 L0,10" fill="#7b65a6"/></marker><marker id="arrow-relationship" viewBox="0 0 10 10" refX="9" refY="5" markerWidth="7" markerHeight="7" orient="auto-start-reverse"><path d="M0,0 L10,5 L0,10" fill="#7b65a6"/></marker><marker id="arrow-registration" viewBox="0 0 10 10" refX="9" refY="5" markerWidth="7" markerHeight="7" orient="auto-start-reverse"><path d="M0,0 L10,5 L0,10" fill="#89939f"/></marker><style>text{font-family:'Segoe UI','Microsoft YaHei',sans-serif;fill:#263648}.body{font-size:18px}.small{font-size:15px;fill:#576779}.stereotype{font-size:13px;fill:#687886;letter-spacing:.6px}.node-title{font-size:19px;font-weight:600}.group-title{font-size:21px;font-weight:600}.edge-label{font-size:16px}.page-title{font-size:32px;font-weight:650}.section-title{font-size:24px;font-weight:650}.note{font-size:17px;fill:#526477}.node{cursor:pointer}.node:focus{outline:none}.node.selected>rect,.node.selected>path{stroke:#db7521;stroke-width:4}.node.dim{opacity:.20}.edge.dim{opacity:.13}.edge.focused>path{stroke-width:3.5}</style></defs><rect width="100%" height="100%" fill="#f7f8fa"/><text x="36" y="48" class="page-title" text-anchor="start">实体 · 组件归属与关系</text><text x="36" y="80" class="note" text-anchor="start">按实体角色汇总关键组件，可选组件并非始终存在；虚线＝普通引用，紫实线＝Bevy 关系。</text><g class="node entity" data-id="entity-controller" tabindex="0" role="button" aria-label="键盘控制者"><g><rect x="30" y="112" width="360" height="350" rx="12" fill="#fff" stroke="#25674e" stroke-width="1.5"/><path d="M30,169H390" stroke="#dae2e8"/><text x="50" y="142" class="group-title" text-anchor="start">«Entity» 控制者</text><text x="50" y="161" class="small" text-anchor="start">当前数量：1</text></g></g><g class="node component" data-id="controller.PlayerId" tabindex="0" role="button" aria-label="PlayerId"><rect x="45" y="183" width="330" height="30" rx="4" fill="#f2faf5" stroke="#2a7156"/><text x="57" y="204" class="node-title" text-anchor="start">PlayerId</text></g><g class="node component" data-id="controller.GameplayContext" tabindex="0" role="button" aria-label="GameplayContext"><rect x="45" y="217" width="330" height="30" rx="4" fill="#f2faf5" stroke="#2a7156"/><text x="57" y="238" class="node-title" text-anchor="start">GameplayContext</text></g><g class="node component" data-id="controller.ContextActivity" tabindex="0" role="button" aria-label="ContextActivity&lt;GameplayContext&gt;"><rect x="45" y="251" width="330" height="30" rx="4" fill="#f2faf5" stroke="#2a7156"/><text textLength="306" lengthAdjust="spacingAndGlyphs" x="57" y="272" class="node-title" text-anchor="start">ContextActivity&lt;GameplayContext&gt;</text></g><g class="node component" data-id="controller.ControlsCharacter" tabindex="0" role="button" aria-label="ControlsCharacter"><rect x="45" y="285" width="330" height="30" rx="4" fill="#f2faf5" stroke="#2a7156"/><text x="57" y="306" class="node-title" text-anchor="start">ControlsCharacter</text></g><g class="node component" data-id="controller.ControlsCamera" tabindex="0" role="button" aria-label="ControlsCamera"><rect x="45" y="319" width="330" height="30" rx="4" fill="#f2faf5" stroke="#2a7156"/><text x="57" y="340" class="node-title" text-anchor="start">ControlsCamera</text></g><g class="node component" data-id="controller.Actions" tabindex="0" role="button" aria-label="Actions&lt;GameplayContext&gt;"><rect x="45" y="353" width="330" height="30" rx="4" fill="#f2faf5" stroke="#2a7156"/><text x="57" y="374" class="node-title" text-anchor="start">Actions&lt;GameplayContext&gt;</text></g><g class="node component" data-id="controller.GamepadDevice" tabindex="0" role="button" aria-label="GamepadDevice"><rect x="45" y="387" width="330" height="30" rx="4" fill="#f2faf5" stroke="#2a7156"/><text x="57" y="408" class="node-title" text-anchor="start">GamepadDevice</text></g><text x="46" y="450" class="small" text-anchor="start">完整清单：9 项组件 · 点击实体查看</text><g class="node entity" data-id="entity-action" tabindex="0" role="button" aria-label="动作实体"><g><rect x="540" y="112" width="360" height="315" rx="12" fill="#fff" stroke="#25674e" stroke-width="1.5"/><path d="M540,169H900" stroke="#dae2e8"/><text x="560" y="142" class="group-title" text-anchor="start">«Entity» 动作</text><text x="560" y="161" class="small" text-anchor="start">当前数量：5</text></g></g><g class="node component" data-id="action.Action" tabindex="0" role="button" aria-label="Action&lt;A&gt;"><rect x="555" y="183" width="330" height="30" rx="4" fill="#f2faf5" stroke="#2a7156"/><text x="567" y="204" class="node-title" text-anchor="start">Action&lt;A&gt;</text></g><g class="node component" data-id="action.ActionSettings" tabindex="0" role="button" aria-label="ActionSettings"><rect x="555" y="217" width="330" height="30" rx="4" fill="#f2faf5" stroke="#2a7156"/><text x="567" y="238" class="node-title" text-anchor="start">ActionSettings</text></g><g class="node component" data-id="action.ActionOf" tabindex="0" role="button" aria-label="ActionOf&lt;GameplayContext&gt;"><rect x="555" y="251" width="330" height="30" rx="4" fill="#f2faf5" stroke="#2a7156"/><text x="567" y="272" class="node-title" text-anchor="start">ActionOf&lt;GameplayContext&gt;</text></g><g class="node component" data-id="action.Bindings" tabindex="0" role="button" aria-label="Bindings"><rect x="555" y="285" width="330" height="30" rx="4" fill="#f2faf5" stroke="#2a7156"/><text x="567" y="306" class="node-title" text-anchor="start">Bindings</text></g><g class="node component" data-id="action.Press" tabindex="0" role="button" aria-label="Press"><rect x="555" y="319" width="330" height="30" rx="4" fill="#f2faf5" stroke="#2a7156"/><text x="567" y="340" class="node-title" text-anchor="start">Press</text></g><text x="556" y="415" class="small" text-anchor="start">完整清单：13 项组件 · 点击实体查看</text><g class="node entity" data-id="entity-binding" tabindex="0" role="button" aria-label="绑定实体"><g><rect x="1050" y="112" width="360" height="230" rx="12" fill="#fff" stroke="#25674e" stroke-width="1.5"/><path d="M1050,169H1410" stroke="#dae2e8"/><text x="1070" y="142" class="group-title" text-anchor="start">«Entity» 输入绑定</text><text x="1070" y="161" class="small" text-anchor="start">当前数量：8</text></g></g><g class="node component" data-id="binding.Binding" tabindex="0" role="button" aria-label="Binding"><rect x="1065" y="183" width="330" height="30" rx="4" fill="#f2faf5" stroke="#2a7156"/><text x="1077" y="204" class="node-title" text-anchor="start">Binding</text></g><g class="node component" data-id="binding.BindingOf" tabindex="0" role="button" aria-label="BindingOf"><rect x="1065" y="217" width="330" height="30" rx="4" fill="#f2faf5" stroke="#2a7156"/><text x="1077" y="238" class="node-title" text-anchor="start">BindingOf</text></g><text x="1066" y="330" class="small" text-anchor="start">完整清单：6 项组件 · 点击实体查看</text><g class="node entity" data-id="entity-character" tabindex="0" role="button" aria-label="角色业务根实体"><g><rect x="30" y="650" width="360" height="600" rx="12" fill="#fff" stroke="#25674e" stroke-width="1.5"/><path d="M30,707H390" stroke="#dae2e8"/><text x="50" y="680" class="group-title" text-anchor="start">«Entity» 角色</text><text x="50" y="699" class="small" text-anchor="start">当前数量：1</text></g></g><g class="node component" data-id="character.Character" tabindex="0" role="button" aria-label="Character"><rect x="45" y="721" width="330" height="30" rx="4" fill="#f2faf5" stroke="#2a7156"/><text x="57" y="742" class="node-title" text-anchor="start">Character</text></g><g class="node component" data-id="character.CharacterIntent" tabindex="0" role="button" aria-label="CharacterIntent"><rect x="45" y="755" width="330" height="30" rx="4" fill="#f2faf5" stroke="#2a7156"/><text x="57" y="776" class="node-title" text-anchor="start">CharacterIntent</text></g><g class="node component" data-id="character.CharacterMotion" tabindex="0" role="button" aria-label="CharacterMotion"><rect x="45" y="789" width="330" height="30" rx="4" fill="#f2faf5" stroke="#2a7156"/><text x="57" y="810" class="node-title" text-anchor="start">CharacterMotion</text></g><g class="node component" data-id="character.RigidBody" tabindex="0" role="button" aria-label="RigidBody"><rect x="45" y="823" width="330" height="30" rx="4" fill="#f2faf5" stroke="#2a7156"/><text x="57" y="844" class="node-title" text-anchor="start">RigidBody</text></g><g class="node component" data-id="character.Collider" tabindex="0" role="button" aria-label="Collider"><rect x="45" y="857" width="330" height="30" rx="4" fill="#f2faf5" stroke="#2a7156"/><text x="57" y="878" class="node-title" text-anchor="start">Collider</text></g><g class="node component" data-id="character.Position" tabindex="0" role="button" aria-label="Position"><rect x="45" y="891" width="330" height="30" rx="4" fill="#f2faf5" stroke="#2a7156"/><text x="57" y="912" class="node-title" text-anchor="start">Position</text></g><g class="node component" data-id="character.LinearVelocity" tabindex="0" role="button" aria-label="LinearVelocity"><rect x="45" y="925" width="330" height="30" rx="4" fill="#f2faf5" stroke="#2a7156"/><text x="57" y="946" class="node-title" text-anchor="start">LinearVelocity</text></g><g class="node component" data-id="character.Transform" tabindex="0" role="button" aria-label="Transform"><rect x="45" y="959" width="330" height="30" rx="4" fill="#f2faf5" stroke="#2a7156"/><text x="57" y="980" class="node-title" text-anchor="start">Transform</text></g><g class="node component" data-id="character.CollisionLayers" tabindex="0" role="button" aria-label="CollisionLayers"><rect x="45" y="993" width="330" height="30" rx="4" fill="#f2faf5" stroke="#2a7156"/><text x="57" y="1014" class="node-title" text-anchor="start">CollisionLayers</text></g><g class="node component" data-id="character.LockedAxes" tabindex="0" role="button" aria-label="LockedAxes"><rect x="45" y="1027" width="330" height="30" rx="4" fill="#f2faf5" stroke="#2a7156"/><text x="57" y="1048" class="node-title" text-anchor="start">LockedAxes</text></g><g class="node component" data-id="character.TranslationInterpolation" tabindex="0" role="button" aria-label="TranslationInterpolation"><rect x="45" y="1061" width="330" height="30" rx="4" fill="#f2faf5" stroke="#2a7156"/><text x="57" y="1082" class="node-title" text-anchor="start">TranslationInterpolation</text></g><g class="node component" data-id="character.HoldingItems" tabindex="0" role="button" aria-label="HoldingItems"><rect x="45" y="1095" width="330" height="30" rx="4" fill="#f2faf5" stroke="#2a7156"/><text x="57" y="1116" class="node-title" text-anchor="start">HoldingItems</text></g><g class="node component" data-id="character.Children" tabindex="0" role="button" aria-label="Children"><rect x="45" y="1129" width="330" height="30" rx="4" fill="#f2faf5" stroke="#2a7156"/><text x="57" y="1150" class="node-title" text-anchor="start">Children</text></g><text x="46" y="1238" class="small" text-anchor="start">完整清单：31 项组件 · 点击实体查看</text><g class="node entity" data-id="entity-parcel" tabindex="0" role="button" aria-label="木箱快递业务根实体"><g><rect x="540" y="650" width="360" height="615" rx="12" fill="#fff" stroke="#25674e" stroke-width="1.5"/><path d="M540,707H900" stroke="#dae2e8"/><text x="560" y="680" class="group-title" text-anchor="start">«Entity» 木箱快递</text><text x="560" y="699" class="small" text-anchor="start">当前数量：1</text></g></g><g class="node component" data-id="parcel.Parcel" tabindex="0" role="button" aria-label="Parcel"><rect x="555" y="721" width="330" height="30" rx="4" fill="#f2faf5" stroke="#2a7156"/><text x="567" y="742" class="node-title" text-anchor="start">Parcel</text></g><g class="node component" data-id="parcel.Pickable" tabindex="0" role="button" aria-label="Pickable"><rect x="555" y="755" width="330" height="30" rx="4" fill="#f2faf5" stroke="#2a7156"/><text x="567" y="776" class="node-title" text-anchor="start">Pickable</text></g><g class="node component" data-id="parcel.RigidBody" tabindex="0" role="button" aria-label="RigidBody"><rect x="555" y="789" width="330" height="30" rx="4" fill="#f2faf5" stroke="#2a7156"/><text x="567" y="810" class="node-title" text-anchor="start">RigidBody</text></g><g class="node component" data-id="parcel.Collider" tabindex="0" role="button" aria-label="Collider"><rect x="555" y="823" width="330" height="30" rx="4" fill="#f2faf5" stroke="#2a7156"/><text x="567" y="844" class="node-title" text-anchor="start">Collider</text></g><g class="node component" data-id="parcel.Position" tabindex="0" role="button" aria-label="Position"><rect x="555" y="857" width="330" height="30" rx="4" fill="#f2faf5" stroke="#2a7156"/><text x="567" y="878" class="node-title" text-anchor="start">Position</text></g><g class="node component" data-id="parcel.LinearVelocity" tabindex="0" role="button" aria-label="LinearVelocity"><rect x="555" y="891" width="330" height="30" rx="4" fill="#f2faf5" stroke="#2a7156"/><text x="567" y="912" class="node-title" text-anchor="start">LinearVelocity</text></g><g class="node component" data-id="parcel.AngularVelocity" tabindex="0" role="button" aria-label="AngularVelocity"><rect x="555" y="925" width="330" height="30" rx="4" fill="#f2faf5" stroke="#2a7156"/><text x="567" y="946" class="node-title" text-anchor="start">AngularVelocity</text></g><g class="node component" data-id="parcel.Transform" tabindex="0" role="button" aria-label="Transform"><rect x="555" y="959" width="330" height="30" rx="4" fill="#f2faf5" stroke="#2a7156"/><text x="567" y="980" class="node-title" text-anchor="start">Transform</text></g><g class="node component" data-id="parcel.CollisionLayers" tabindex="0" role="button" aria-label="CollisionLayers"><rect x="555" y="993" width="330" height="30" rx="4" fill="#f2faf5" stroke="#2a7156"/><text x="567" y="1014" class="node-title" text-anchor="start">CollisionLayers</text></g><g class="node component" data-id="parcel.HeldBy" tabindex="0" role="button" aria-label="HeldBy"><rect x="555" y="1027" width="330" height="30" rx="4" fill="#f2faf5" stroke="#2a7156"/><text x="567" y="1048" class="node-title" text-anchor="start">HeldBy</text></g><g class="node component" data-id="parcel.HeldTarget" tabindex="0" role="button" aria-label="HeldTarget"><rect x="555" y="1061" width="330" height="30" rx="4" fill="#f2faf5" stroke="#2a7156"/><text x="567" y="1082" class="node-title" text-anchor="start">HeldTarget</text></g><g class="node component" data-id="parcel.TransformInterpolation" tabindex="0" role="button" aria-label="TransformInterpolation"><rect x="555" y="1095" width="330" height="30" rx="4" fill="#f2faf5" stroke="#2a7156"/><text x="567" y="1116" class="node-title" text-anchor="start">TransformInterpolation</text></g><g class="node component" data-id="parcel.Children" tabindex="0" role="button" aria-label="Children"><rect x="555" y="1129" width="330" height="30" rx="4" fill="#f2faf5" stroke="#2a7156"/><text x="567" y="1150" class="node-title" text-anchor="start">Children</text></g><text x="556" y="1253" class="small" text-anchor="start">完整清单：38 项组件 · 点击实体查看</text><g class="node entity" data-id="entity-camera" tabindex="0" role="button" aria-label="环绕相机实体"><g><rect x="1050" y="650" width="360" height="365" rx="12" fill="#fff" stroke="#25674e" stroke-width="1.5"/><path d="M1050,707H1410" stroke="#dae2e8"/><text x="1070" y="680" class="group-title" text-anchor="start">«Entity» 相机</text><text x="1070" y="699" class="small" text-anchor="start">当前数量：1</text></g></g><g class="node component" data-id="camera.OrbitCamera" tabindex="0" role="button" aria-label="OrbitCamera"><rect x="1065" y="721" width="330" height="30" rx="4" fill="#f2faf5" stroke="#2a7156"/><text x="1077" y="742" class="node-title" text-anchor="start">OrbitCamera</text></g><g class="node component" data-id="camera.MouseLookState" tabindex="0" role="button" aria-label="MouseLookState"><rect x="1065" y="755" width="330" height="30" rx="4" fill="#f2faf5" stroke="#2a7156"/><text x="1077" y="776" class="node-title" text-anchor="start">MouseLookState</text></g><g class="node component" data-id="camera.Camera3d" tabindex="0" role="button" aria-label="Camera3d"><rect x="1065" y="789" width="330" height="30" rx="4" fill="#f2faf5" stroke="#2a7156"/><text x="1077" y="810" class="node-title" text-anchor="start">Camera3d</text></g><g class="node component" data-id="camera.Transform" tabindex="0" role="button" aria-label="Transform"><rect x="1065" y="823" width="330" height="30" rx="4" fill="#f2faf5" stroke="#2a7156"/><text x="1077" y="844" class="node-title" text-anchor="start">Transform</text></g><text x="1066" y="1003" class="small" text-anchor="start">完整清单：12 项组件 · 点击实体查看</text><g class="node entity" data-id="entity-world" tabindex="0" role="button" aria-label="静态世界碰撞实体"><g><rect x="1050" y="1080" width="360" height="430" rx="12" fill="#fff" stroke="#25674e" stroke-width="1.5"/><path d="M1050,1137H1410" stroke="#dae2e8"/><text x="1070" y="1110" class="group-title" text-anchor="start">«Entity» 静态地面 / 墙体</text><text x="1070" y="1129" class="small" text-anchor="start">当前数量：2</text></g></g><g class="node component" data-id="world.RigidBody" tabindex="0" role="button" aria-label="RigidBody"><rect x="1065" y="1151" width="330" height="30" rx="4" fill="#f2faf5" stroke="#2a7156"/><text x="1077" y="1172" class="node-title" text-anchor="start">RigidBody</text></g><g class="node component" data-id="world.Collider" tabindex="0" role="button" aria-label="Collider"><rect x="1065" y="1185" width="330" height="30" rx="4" fill="#f2faf5" stroke="#2a7156"/><text x="1077" y="1206" class="node-title" text-anchor="start">Collider</text></g><g class="node component" data-id="world.CollisionLayers" tabindex="0" role="button" aria-label="CollisionLayers"><rect x="1065" y="1219" width="330" height="30" rx="4" fill="#f2faf5" stroke="#2a7156"/><text x="1077" y="1240" class="node-title" text-anchor="start">CollisionLayers</text></g><g class="node component" data-id="world.Transform" tabindex="0" role="button" aria-label="Transform"><rect x="1065" y="1253" width="330" height="30" rx="4" fill="#f2faf5" stroke="#2a7156"/><text x="1077" y="1274" class="node-title" text-anchor="start">Transform</text></g><g class="node component" data-id="world.Mesh3d" tabindex="0" role="button" aria-label="Mesh3d"><rect x="1065" y="1287" width="330" height="30" rx="4" fill="#f2faf5" stroke="#2a7156"/><text x="1077" y="1308" class="node-title" text-anchor="start">Mesh3d</text></g><g class="node component" data-id="world.MeshMaterial3d" tabindex="0" role="button" aria-label="MeshMaterial3d"><rect x="1065" y="1321" width="330" height="30" rx="4" fill="#f2faf5" stroke="#2a7156"/><text x="1077" y="1342" class="node-title" text-anchor="start">MeshMaterial3d</text></g><text x="1066" y="1498" class="small" text-anchor="start">完整清单：9 项组件 · 点击实体查看</text><g class="node entity" data-id="entity-visual" tabindex="0" role="button" aria-label="角色与木箱的视觉子实体"><g><rect x="30" y="1540" width="360" height="355" rx="12" fill="#fff" stroke="#25674e" stroke-width="1.5"/><path d="M30,1597H390" stroke="#dae2e8"/><text x="50" y="1570" class="group-title" text-anchor="start">«Entity» 视觉子实体</text><text x="50" y="1589" class="small" text-anchor="start">6 个：人物 3、木箱 3</text></g></g><g class="node component" data-id="visual.CharacterVisual" tabindex="0" role="button" aria-label="CharacterVisual"><rect x="45" y="1611" width="330" height="30" rx="4" fill="#f2faf5" stroke="#2a7156"/><text x="57" y="1632" class="node-title" text-anchor="start">CharacterVisual（仅人物）</text></g><g class="node component" data-id="visual.Mesh3d" tabindex="0" role="button" aria-label="Mesh3d"><rect x="45" y="1645" width="330" height="30" rx="4" fill="#f2faf5" stroke="#2a7156"/><text x="57" y="1666" class="node-title" text-anchor="start">Mesh3d</text></g><g class="node component" data-id="visual.MeshMaterial3d" tabindex="0" role="button" aria-label="MeshMaterial3d&lt;StandardMaterial&gt;"><rect x="45" y="1679" width="330" height="30" rx="4" fill="#f2faf5" stroke="#2a7156"/><text textLength="306" lengthAdjust="spacingAndGlyphs" x="57" y="1700" class="node-title" text-anchor="start">MeshMaterial3d&lt;StandardMaterial&gt;</text></g><g class="node component" data-id="visual.Transform" tabindex="0" role="button" aria-label="Transform"><rect x="45" y="1713" width="330" height="30" rx="4" fill="#f2faf5" stroke="#2a7156"/><text x="57" y="1734" class="node-title" text-anchor="start">Transform</text></g><g class="node component" data-id="visual.GlobalTransform" tabindex="0" role="button" aria-label="GlobalTransform"><rect x="45" y="1747" width="330" height="30" rx="4" fill="#f2faf5" stroke="#2a7156"/><text x="57" y="1768" class="node-title" text-anchor="start">GlobalTransform</text></g><g class="node component" data-id="visual.ChildOf" tabindex="0" role="button" aria-label="ChildOf"><rect x="45" y="1781" width="330" height="30" rx="4" fill="#f2faf5" stroke="#2a7156"/><text x="57" y="1802" class="node-title" text-anchor="start">ChildOf</text></g><text x="46" y="1883" class="small" text-anchor="start">完整清单：8 项组件 · 点击实体查看</text><g class="node entity" data-id="entity-window" tabindex="0" role="button" aria-label="主窗口实体"><g><rect x="1050" y="1580" width="360" height="270" rx="12" fill="#fff" stroke="#25674e" stroke-width="1.5"/><path d="M1050,1637H1410" stroke="#dae2e8"/><text x="1070" y="1610" class="group-title" text-anchor="start">«Entity» 主窗口</text><text x="1070" y="1629" class="small" text-anchor="start">当前数量：1</text></g></g><g class="node component" data-id="window.PrimaryWindow" tabindex="0" role="button" aria-label="PrimaryWindow"><rect x="1065" y="1651" width="330" height="30" rx="4" fill="#f2faf5" stroke="#2a7156"/><text x="1077" y="1672" class="node-title" text-anchor="start">PrimaryWindow</text></g><g class="node component" data-id="window.Window" tabindex="0" role="button" aria-label="Window"><rect x="1065" y="1685" width="330" height="30" rx="4" fill="#f2faf5" stroke="#2a7156"/><text x="1077" y="1706" class="node-title" text-anchor="start">Window</text></g><g class="node component" data-id="window.CursorOptions" tabindex="0" role="button" aria-label="CursorOptions"><rect x="1065" y="1719" width="330" height="30" rx="4" fill="#f2faf5" stroke="#2a7156"/><text x="1077" y="1740" class="node-title" text-anchor="start">CursorOptions</text></g><text x="1066" y="1838" class="small" text-anchor="start">完整清单：3 项组件 · 点击实体查看</text><g class="edge relationship" data-connect="entity-action|entity-controller"><path d="M540,214 L390,214" stroke="#7b65a6" stroke-width="2" fill="none"  marker-end="url(#arrow-relationship)"/><rect x="421" y="199" width="88" height="24" rx="4" fill="#fffdf9"/><text x="465" y="216" class="edge-label" text-anchor="middle">ActionOf</text></g><text x="408" y="247" class="small" text-anchor="start">← Actions</text><text x="408" y="272" class="small" text-anchor="start">反向索引</text><g class="edge relationship" data-connect="entity-binding|entity-action"><path d="M1050,214 L900,214" stroke="#7b65a6" stroke-width="2" fill="none"  marker-end="url(#arrow-relationship)"/><rect x="926.5" y="199" width="97" height="24" rx="4" fill="#fffdf9"/><text x="975" y="216" class="edge-label" text-anchor="middle">BindingOf</text></g><text x="921" y="247" class="small" text-anchor="start">← Bindings</text><text x="921" y="272" class="small" text-anchor="start">反向索引</text><g class="edge reference" data-connect="entity-controller|entity-character"><path d="M152,462 L152,650" stroke="#7b65a6" stroke-width="2" fill="none" stroke-dasharray="6 5" marker-end="url(#arrow-reference)"/><rect x="67.5" y="553" width="169" height="24" rx="4" fill="#fffdf9"/><text x="152" y="570" class="edge-label" text-anchor="middle">ControlsCharacter</text></g><g class="edge reference" data-connect="entity-controller|entity-camera"><path d="M326,462 L326,493 L1230,493 L1230,650" stroke="#7b65a6" stroke-width="2" fill="none" stroke-dasharray="6 5" marker-end="url(#arrow-reference)"/><rect x="707" y="480" width="142" height="24" rx="4" fill="#fffdf9"/><text x="778" y="497" class="edge-label" text-anchor="middle">ControlsCamera</text></g><g class="edge reference" data-connect="entity-camera|entity-controller"><path d="M1350,650 L1350,546 L370,546 L370,462" stroke="#7b65a6" stroke-width="2" fill="none" stroke-dasharray="6 5" marker-end="url(#arrow-reference)"/><rect x="747.5" y="533" width="255" height="24" rx="4" fill="#fffdf9"/><text x="875" y="550" class="edge-label" text-anchor="middle">toggle_requested_by（临时）</text></g><g class="edge reference" data-connect="entity-camera|entity-character"><path d="M1143,650 L1143,600 L273,600 L273,650" stroke="#7b65a6" stroke-width="2" fill="none" stroke-dasharray="6 5" marker-end="url(#arrow-reference)"/><rect x="646" y="587" width="178" height="24" rx="4" fill="#fffdf9"/><text x="735" y="604" class="edge-label" text-anchor="middle">OrbitCamera.target</text></g><g class="edge relationship" data-connect="entity-parcel|entity-character"><path d="M540,810 L390,810" stroke="#7b65a6" stroke-width="2" fill="none"  marker-end="url(#arrow-relationship)"/><rect x="430" y="795" width="70" height="24" rx="4" fill="#fffdf9"/><text x="465" y="812" class="edge-label" text-anchor="middle">HeldBy</text></g><text x="399" y="848" class="small" text-anchor="start">← HoldingItems</text><text x="407" y="873" class="small" text-anchor="start">无 linked_spawn</text><g class="edge relationship" data-connect="entity-visual|entity-character"><path d="M157,1540 L157,1250" stroke="#7b65a6" stroke-width="2" fill="none"  marker-end="url(#arrow-relationship)"/><rect x="75" y="1387" width="164" height="24" rx="4" fill="#fffdf9"/><text x="157" y="1404" class="edge-label" text-anchor="middle">ChildOf：人物模型</text></g><g class="edge relationship" data-connect="entity-visual|entity-parcel"><path d="M390,1687 L965,1687 L965,1230 L900,1230" stroke="#7b65a6" stroke-width="2" fill="none"  marker-end="url(#arrow-relationship)"/><rect x="608" y="1642" width="164" height="24" rx="4" fill="#fffdf9"/><text x="690" y="1659" class="edge-label" text-anchor="middle">ChildOf：箱子模型</text></g><g><rect x="540" y="1910" width="870" height="228" rx="12" fill="#fff" stroke="#526477" stroke-width="1.5"/><path d="M540,1967H1410" stroke="#dae2e8"/><text x="560" y="1940" class="group-title" text-anchor="start">关系的基数与生命周期</text><text x="560" y="1959" class="small" text-anchor="start">这里只描述当前源码声明的行为。</text></g><text x="561" y="1994" class="small" text-anchor="start">HeldBy：每箱 0..1 位持有者；HoldingItems 容器允许 0..N，当前业务一次持一件。</text><text x="561" y="2021" class="small" text-anchor="start">ActionOf / BindingOf / ChildOf 声明 linked_spawn；HeldBy 不连带销毁箱体。</text><text x="561" y="2048" class="small" text-anchor="start">失效持有者 / 异常解除：移除 HeldTarget、恢复自由碰撞，动态箱体自然下落。</text><text x="561" y="2075" class="small" text-anchor="start">Position / Velocity 为物理状态，Transform 为插值呈现；视觉子实体无刚体。</text><text x="561" y="2102" class="small" text-anchor="start">持握使用反作用力，仍参与世界碰撞；持握箱当前忽略全部 Character 层。</text><g><rect x="540" y="1300" width="360" height="338" rx="12" fill="#fff" stroke="#526477" stroke-width="1.5"/><path d="M540,1357H900" stroke="#dae2e8"/><text x="560" y="1330" class="group-title" text-anchor="start">«Resource / Local» 数据范围</text><text x="560" y="1349" class="small" text-anchor="start">Resource 共享；Local 属于某个系统。</text></g><g class="node resource" data-id="resource.GameSettings" tabindex="0" role="button" aria-label="GameSettings"><rect x="554" y="1370" width="332" height="28" rx="4" fill="#fff" stroke="#8b6130"/><text x="566" y="1390" class="node-title" text-anchor="start">GameSettings</text></g><g class="node resource" data-id="resource.PrototypeConfig" tabindex="0" role="button" aria-label="PrototypeConfig"><rect x="554" y="1403" width="332" height="28" rx="4" fill="#fff" stroke="#8b6130"/><text x="566" y="1423" class="node-title" text-anchor="start">PrototypeConfig</text></g><g class="node resource" data-id="resource.TimeFixed" tabindex="0" role="button" aria-label="Time&lt;Fixed&gt;"><rect x="554" y="1436" width="332" height="28" rx="4" fill="#fff" stroke="#8b6130"/><text x="566" y="1456" class="node-title" text-anchor="start">Time&lt;Fixed&gt;</text></g><g class="node resource" data-id="resource.Gravity" tabindex="0" role="button" aria-label="Gravity"><rect x="554" y="1469" width="332" height="28" rx="4" fill="#fff" stroke="#8b6130"/><text x="566" y="1489" class="node-title" text-anchor="start">Gravity</text></g><g class="node resource" data-id="resource.ColliderTrees" tabindex="0" role="button" aria-label="ColliderTrees"><rect x="554" y="1502" width="332" height="28" rx="4" fill="#fff" stroke="#8b6130"/><text x="566" y="1522" class="node-title" text-anchor="start">ColliderTrees</text></g><g class="node resource" data-id="resource.ContactGraph" tabindex="0" role="button" aria-label="ContactGraph"><rect x="554" y="1535" width="332" height="28" rx="4" fill="#fff" stroke="#8b6130"/><text x="566" y="1555" class="node-title" text-anchor="start">ContactGraph</text></g><text x="557" y="1593" class="small" text-anchor="start">预留集合 / 采样计时：Local</text><text x="557" y="1621" class="small" text-anchor="start">LastEasingTick：插值共享 Resource</text><g><rect x="540" y="1720" width="360" height="168" rx="12" fill="#fff" stroke="#526477" stroke-width="1.5"/><path d="M540,1777H900" stroke="#dae2e8"/><text x="560" y="1750" class="group-title" text-anchor="start">«Resource» 音频数据</text><text x="560" y="1769" class="small" text-anchor="start">警告 / 落地锁存各属于系统 Local。</text></g><g class="node resource" data-id="resource.SoundBank" tabindex="0" role="button" aria-label="SoundBank"><rect x="554" y="1791" width="332" height="28" rx="4" fill="#fff" stroke="#8b6130"/><text x="566" y="1811" class="node-title" text-anchor="start">SoundBank</text></g><g class="node resource" data-id="resource.UiAudioChannel" tabindex="0" role="button" aria-label="AudioChannel&lt;UiTrack&gt;"><rect x="554" y="1824" width="332" height="28" rx="4" fill="#fff" stroke="#8b6130"/><text x="566" y="1844" class="node-title" text-anchor="start">AudioChannel&lt;UiTrack&gt;</text></g><g class="node resource" data-id="resource.SfxAudioChannel" tabindex="0" role="button" aria-label="AudioChannel&lt;SfxTrack&gt;"><rect x="554" y="1857" width="332" height="28" rx="4" fill="#fff" stroke="#8b6130"/><text x="566" y="1877" class="node-title" text-anchor="start">AudioChannel&lt;SfxTrack&gt;</text></g></svg>